<svg width="27" height="24" viewBox="0 0 27 24" fill="none" xmlns="http://www.w3.org/2000/svg">
<g clip-path="url(#clip0_748_534)">
<path d="M2.35538 24C1.49587 24 0.743805 23.3 0.743805 22.5V3.5C0.743805 2.7 1.49587 2 2.35538 2H6.11571V0.5C6.11571 0.2 6.33058 0 6.6529 0C6.97521 0 7.19009 0.2 7.19009 0.5V2H20.0826V0.5C20.0826 0.2 20.2975 0 20.6198 0C20.9422 0 21.157 0.2 21.157 0.5V2H24.9174C25.7769 2 26.5289 2.7 26.5289 3.5V22.5C26.5289 23.3 25.7769 24 24.9174 24H2.35538ZM1.81819 22.5C1.81819 22.8 2.03306 23 2.35538 23H24.9174C25.2397 23 25.4546 22.8 25.4546 22.5V8H1.81819V22.5ZM25.4546 7V3.5C25.4546 3.2 25.2397 3 24.9174 3H21.157V5.5C21.157 5.8 20.9422 6 20.6198 6C20.2975 6 20.0826 5.8 20.0826 5.5V3H7.19009V5.5C7.19009 5.8 6.97521 6 6.6529 6C6.33058 6 6.11571 5.8 6.11571 5.5V3H2.35538C2.03306 3 1.81819 3.2 1.81819 3.5V7H25.4546Z" fill="white"/>
<path d="M13.6364 21C10.4132 21 7.72728 18.5 7.72728 15.5C7.72728 12.5 10.4132 10 13.6364 10C13.9587 10 14.1736 10.2 14.1736 10.5C14.1736 10.8 13.9587 11 13.6364 11C10.9504 11 8.80166 13 8.80166 15.5C8.80166 18 10.9504 20 13.6364 20C16.3223 20 18.4711 18 18.4711 15.5C18.4711 15.2 18.686 15 19.0083 15C19.3306 15 19.5455 15.2 19.5455 15.5C19.5455 18.5 16.8595 21 13.6364 21Z" fill="white"/>
<path d="M13.5289 16.8C13.314 16.8 13.0992 16.7 12.8843 16.6L11.1653 15.4C11.0578 15.3 10.9504 15.2 10.9504 15.1C10.9504 15 10.9504 14.8 11.0578 14.7C11.1653 14.6 11.2727 14.5 11.4876 14.5C11.595 14.5 11.7025 14.5 11.8099 14.6L13.5289 15.8L18.5785 10.2C18.6859 10.1 18.7934 10 19.0083 10C19.1157 10 19.2231 10 19.3306 10.1C19.5455 10.3 19.5455 10.6 19.438 10.8L14.3884 16.4C14.1736 16.7 13.8512 16.8 13.5289 16.8Z" fill="white"/>
</g>
<defs>
<clipPath id="clip0_748_534">
<rect width="25.7851" height="24" fill="white" transform="translate(0.743805)"/>
</clipPath>
</defs>
</svg>
